<svg width="40" height="41" viewBox="0 0 40 41" fill="none" xmlns="http://www.w3.org/2000/svg">
<g clip-path="url(#clip0_400_21929)">
<g clip-path="url(#clip1_400_21929)">
<path d="M19.9997 36.5509C11.656 36.5509 4.86719 29.7613 4.86719 21.4167C4.86719 13.0721 11.656 6.28425 19.9997 6.28425C22.3925 6.27707 24.7523 6.84355 26.8811 7.9362C27.0856 8.0408 27.2401 8.22234 27.3108 8.44089C27.3814 8.65943 27.3623 8.89709 27.2577 9.10157C27.1531 9.30605 26.9716 9.46061 26.753 9.53124C26.5345 9.60187 26.2968 9.58279 26.0923 9.47819C24.2075 8.51087 22.1183 8.00941 19.9997 8.01586C12.6101 8.01586 6.59879 14.0271 6.59879 21.4167C6.59879 28.8063 12.6101 34.8193 19.9997 34.8193C27.3893 34.8193 33.4006 28.8063 33.4006 21.4167C33.4011 20.2647 33.2536 19.1173 32.9616 18.0029C32.9084 17.7826 32.9437 17.5502 33.0599 17.3556C33.1761 17.161 33.364 17.0198 33.5832 16.9622C33.8025 16.9046 34.0355 16.9353 34.2323 17.0476C34.4292 17.16 34.5741 17.345 34.6361 17.5631C34.9656 18.8214 35.1321 20.1168 35.1313 21.4176C35.1322 29.7613 28.3443 36.5509 19.9997 36.5509Z" fill="#029C78"/>
<path d="M19.5349 25.067C19.3053 25.0669 19.0851 24.9757 18.9228 24.8133L14.5375 20.428C14.3898 20.2633 14.3108 20.0482 14.3167 19.8271C14.3226 19.6059 14.4129 19.3954 14.5691 19.2387C14.7253 19.082 14.9356 18.9911 15.1567 18.9846C15.3779 18.9781 15.5931 19.0565 15.7583 19.2037L19.5314 22.9769L33.2068 9.30505C33.3701 9.14733 33.5888 9.06007 33.8158 9.06204C34.0428 9.06401 34.2599 9.15507 34.4205 9.31559C34.581 9.47612 34.6721 9.69327 34.674 9.92028C34.676 10.1473 34.5887 10.366 34.431 10.5293L20.1453 24.815C19.9831 24.9763 19.7637 25.0669 19.5349 25.067Z" fill="#029C78"/>
</g>
</g>
<defs>
<clipPath id="clip0_400_21929">
<rect width="40" height="40" fill="white" transform="translate(0 0.879883)"/>
</clipPath>
<clipPath id="clip1_400_21929">
<rect width="40" height="40" fill="white" transform="translate(0 0.879883)"/>
</clipPath>
</defs>
</svg>
