<svg width="40" height="41" viewBox="0 0 40 41" fill="none" xmlns="http://www.w3.org/2000/svg">
<g clip-path="url(#clip0_400_21919)">
<g clip-path="url(#clip1_400_21919)">
<path fill-rule="evenodd" clip-rule="evenodd" d="M12.6295 27.9551C12.892 27.3526 13.2682 26.7976 13.742 26.3239C14.7382 25.3276 16.0895 24.7676 17.4982 24.7676H22.4982C23.907 24.7676 25.2582 25.3276 26.2545 26.3239C26.7282 26.7976 27.1045 27.3526 27.367 27.9551C27.5745 28.4288 28.127 28.6464 28.602 28.4389C29.0757 28.2326 29.2932 27.6789 29.0857 27.2051C28.7295 26.3889 28.222 25.6389 27.5807 24.9976C26.2332 23.6501 24.4045 22.8926 22.4982 22.8926C20.8732 22.8926 19.1232 22.8926 17.4982 22.8926C15.592 22.8926 13.7632 23.6501 12.4157 24.9976C11.7745 25.6389 11.267 26.3889 10.9107 27.2051C10.7032 27.6789 10.9207 28.2326 11.3945 28.4389C11.8695 28.6464 12.422 28.4288 12.6295 27.9551Z" fill="#FF7659"/>
<path fill-rule="evenodd" clip-rule="evenodd" d="M20 10.3926C16.0325 10.3926 12.8125 13.6126 12.8125 17.5801C12.8125 21.5476 16.0325 24.7676 20 24.7676C23.9675 24.7676 27.1875 21.5476 27.1875 17.5801C27.1875 13.6126 23.9675 10.3926 20 10.3926ZM20 12.2676C22.9325 12.2676 25.3125 14.6476 25.3125 17.5801C25.3125 20.5126 22.9325 22.8926 20 22.8926C17.0675 22.8926 14.6875 20.5126 14.6875 17.5801C14.6875 14.6476 17.0675 12.2676 20 12.2676Z" fill="#FF7659"/>
<path fill-rule="evenodd" clip-rule="evenodd" d="M33.2612 15.3926C33.78 16.8589 34.0625 18.4363 34.0625 20.0801C34.0625 27.8413 27.7612 34.1426 20 34.1426C12.2387 34.1426 5.9375 27.8413 5.9375 20.0801C5.9375 12.3188 12.2387 6.01758 20 6.01758C21.6437 6.01758 23.2213 6.30008 24.6875 6.81883C25.175 6.99133 25.7113 6.73508 25.8838 6.24758C26.0563 5.76008 25.8 5.22383 25.3125 5.05133C23.6513 4.46258 21.8625 4.14258 20 4.14258C11.2037 4.14258 4.0625 11.2838 4.0625 20.0801C4.0625 28.8763 11.2037 36.0176 20 36.0176C28.7962 36.0176 35.9375 28.8763 35.9375 20.0801C35.9375 18.2176 35.6175 16.4289 35.0288 14.7676C34.8563 14.2801 34.32 14.0239 33.8325 14.1964C33.345 14.3689 33.0887 14.9051 33.2612 15.3926Z" fill="#FF7659"/>
<path fill-rule="evenodd" clip-rule="evenodd" d="M26.8372 10.7428L29.3372 13.2428C29.7035 13.609 30.2959 13.609 30.6621 13.2428L35.6621 8.24275C36.0284 7.87775 36.0284 7.28275 35.6621 6.91775C35.2971 6.5515 34.7021 6.5515 34.3371 6.91775L29.9997 11.254L28.1621 9.41775C27.7971 9.0515 27.2021 9.0515 26.8372 9.41775C26.471 9.78275 26.471 10.3778 26.8372 10.7428Z" fill="#FF7659"/>
</g>
</g>
<defs>
<clipPath id="clip0_400_21919">
<rect width="40" height="40" fill="white" transform="translate(0 0.0800781)"/>
</clipPath>
<clipPath id="clip1_400_21919">
<rect width="40" height="40" fill="white" transform="translate(0 0.0800781)"/>
</clipPath>
</defs>
</svg>
